<svg version="1.1" xmlns="http://www.w3.org/2000/svg" xmlns:xlink="http://www.w3.org/1999/xlink" width="788" height="690"><defs/><g><g transform="translate(-86,-46) scale(1,1)"><path fill="#C0C0C0" stroke="none" d="M 191 144.5 C 191 139.2532944 195.2532944 135 200.5 135 C 205.7467056 135 210 139.2532944 210 144.5 C 210 149.7467056 205.7467056 154 200.5 154 C 195.2532944 154 191 149.7467056 191 144.5 Z" opacity="0.2"/></g><g transform="translate(-86,-46) scale(1,1)"><path fill="#000000" stroke="none" d="M 184 137.5 C 184 132.2532944 188.2532944 128 193.5 128 C 198.7467056 128 203 132.2532944 203 137.5 C 203 142.7467056 198.7467056 147 193.5 147 C 188.2532944 147 184 142.7467056 184 137.5 Z"/></g><g transform="translate(-86,-46) scale(1,1)"><path fill="#C0C0C0" stroke="none" d="M 121 215 L 285 215 Q 295 215 295 225 L 295 245 Q 295 255 285 255 L 121 255 Q 111 255 111 245 L 111 225 Q 111 215 121 215 Z" opacity="0.2"/></g><g transform="translate(-86,-46) scale(1,1)"><path fill="#ffffff" stroke="none" d="M 114 208 L 278 208 Q 288 208 288 218 L 288 238 Q 288 248 278 248 L 114 248 Q 104 248 104 238 L 104 218 Q 104 208 114 208 Z"/></g><g transform="translate(-86,-46) scale(1,1)"><path fill="none" stroke="#000000" d="M 114 208 L 278 208 Q 288 208 288 218 L 288 238 Q 288 248 278 248 L 114 248 Q 104 248 104 238 L 104 218 Q 104 208 114 208 Z" stroke-miterlimit="10"/></g><g transform="translate(-86,-46) scale(1,1)"><g><path fill="none" stroke="none"/><text fill="#000000" stroke="none" font-family="Arial" font-size="13px" font-style="normal" font-weight="bold" text-decoration="none" x="150.8427734375" y="227.5">Compile project</text></g></g><g transform="translate(-86,-46) scale(1,1)"><path fill="#C0C0C0" stroke="none" d="M 121 295 L 285 295 Q 295 295 295 305 L 295 325 Q 295 335 285 335 L 121 335 Q 111 335 111 325 L 111 305 Q 111 295 121 295 Z" opacity="0.2"/></g><g transform="translate(-86,-46) scale(1,1)"><path fill="#ffffff" stroke="none" d="M 114 288 L 278 288 Q 288 288 288 298 L 288 318 Q 288 328 278 328 L 114 328 Q 104 328 104 318 L 104 298 Q 104 288 114 288 Z"/></g><g transform="translate(-86,-46) scale(1,1)"><path fill="none" stroke="#000000" d="M 114 288 L 278 288 Q 288 288 288 298 L 288 318 Q 288 328 278 328 L 114 328 Q 104 328 104 318 L 104 298 Q 104 288 114 288 Z" stroke-miterlimit="10"/></g><g transform="translate(-86,-46) scale(1,1)"><g><path fill="none" stroke="none"/><text fill="#000000" stroke="none" font-family="Arial" font-size="13px" font-style="normal" font-weight="bold" text-decoration="none" x="153.010498046875" y="307.5">Search war file</text></g></g><g transform="translate(-86,-46) scale(1,1)"><path fill="#C0C0C0" stroke="none" d="M 121 375 L 285 375 Q 295 375 295 385 L 295 405 Q 295 415 285 415 L 121 415 Q 111 415 111 405 L 111 385 Q 111 375 121 375 Z" opacity="0.2"/></g><g transform="translate(-86,-46) scale(1,1)"><path fill="#ffffff" stroke="none" d="M 114 368 L 278 368 Q 288 368 288 378 L 288 398 Q 288 408 278 408 L 114 408 Q 104 408 104 398 L 104 378 Q 104 368 114 368 Z"/></g><g transform="translate(-86,-46) scale(1,1)"><path fill="none" stroke="#000000" d="M 114 368 L 278 368 Q 288 368 288 378 L 288 398 Q 288 408 278 408 L 114 408 Q 104 408 104 398 L 104 378 Q 104 368 114 368 Z" stroke-miterlimit="10"/></g><g transform="translate(-86,-46) scale(1,1)"><g><path fill="none" stroke="none"/><text fill="#000000" stroke="none" font-family="Arial" font-size="13px" font-style="normal" font-weight="bold" text-decoration="none" x="117.965087890625" y="387.5">Create folder in web server</text></g></g><g transform="translate(-86,-46) scale(1,1)"><path fill="#C0C0C0" stroke="none" d="M 121 447 L 285 447 Q 295 447 295 457 L 295 477 Q 295 487 285 487 L 121 487 Q 111 487 111 477 L 111 457 Q 111 447 121 447 Z" opacity="0.2"/></g><g transform="translate(-86,-46) scale(1,1)"><path fill="#ffffff" stroke="none" d="M 114 440 L 278 440 Q 288 440 288 450 L 288 470 Q 288 480 278 480 L 114 480 Q 104 480 104 470 L 104 450 Q 104 440 114 440 Z"/></g><g transform="translate(-86,-46) scale(1,1)"><path fill="none" stroke="#000000" d="M 114 440 L 278 440 Q 288 440 288 450 L 288 470 Q 288 480 278 480 L 114 480 Q 104 480 104 470 L 104 450 Q 104 440 114 440 Z" stroke-miterlimit="10"/></g><g transform="translate(-86,-46) scale(1,1)"><g><path fill="none" stroke="none"/><text fill="#000000" stroke="none" font-family="Arial" font-size="13px" font-style="normal" font-weight="bold" text-decoration="none" x="156.9873046875" y="459.5">Unzip war file</text></g></g><g transform="translate(-86,-46) scale(1,1)"><path fill="#C0C0C0" stroke="none" d="M 121 527 L 289.87353515625 527 Q 299.87353515625 527 299.87353515625 537 L 299.87353515625 557 Q 299.87353515625 567 289.87353515625 567 L 121 567 Q 111 567 111 557 L 111 537 Q 111 527 121 527 Z" opacity="0.2"/></g><g transform="translate(-86,-46) scale(1,1)"><path fill="#ffffff" stroke="none" d="M 114 520 L 282.87353515625 520 Q 292.87353515625 520 292.87353515625 530 L 292.87353515625 550 Q 292.87353515625 560 282.87353515625 560 L 114 560 Q 104 560 104 550 L 104 530 Q 104 520 114 520 Z"/></g><g transform="translate(-86,-46) scale(1,1)"><path fill="none" stroke="#000000" d="M 114 520 L 282.87353515625 520 Q 292.87353515625 520 292.87353515625 530 L 292.87353515625 550 Q 292.87353515625 560 282.87353515625 560 L 114 560 Q 104 560 104 550 L 104 530 Q 104 520 114 520 Z" stroke-miterlimit="10"/></g><g transform="translate(-86,-46) scale(1,1)"><g><path fill="none" stroke="none"/><text fill="#000000" stroke="none" font-family="Arial" font-size="13px" font-style="normal" font-weight="bold" text-decoration="none" x="115.70458984375" y="539.5">Copy files to folder on server</text></g></g><g transform="translate(-86,-46) scale(1,1)"><path fill="#C0C0C0" stroke="none" d="M 121 599 L 285 599 Q 295 599 295 609 L 295 629 Q 295 639 285 639 L 121 639 Q 111 639 111 629 L 111 609 Q 111 599 121 599 Z" opacity="0.2"/></g><g transform="translate(-86,-46) scale(1,1)"><path fill="#ffffff" stroke="none" d="M 114 592 L 278 592 Q 288 592 288 602 L 288 622 Q 288 632 278 632 L 114 632 Q 104 632 104 622 L 104 602 Q 104 592 114 592 Z"/></g><g transform="translate(-86,-46) scale(1,1)"><path fill="none" stroke="#000000" d="M 114 592 L 278 592 Q 288 592 288 602 L 288 622 Q 288 632 278 632 L 114 632 Q 104 632 104 622 L 104 602 Q 104 592 114 592 Z" stroke-miterlimit="10"/></g><g transform="translate(-86,-46) scale(1,1)"><g><path fill="none" stroke="none"/><text fill="#000000" stroke="none" font-family="Arial" font-size="13px" font-style="normal" font-weight="bold" text-decoration="none" x="161.32275390625" y="611.5">Start Server</text></g></g><g transform="translate(-86,-46) scale(1,1)"><path fill="#C0C0C0" stroke="none" d="M 191 683.5 C 191 676.59644 196.59644 671 203.5 671 C 210.40356 671 216 676.59644 216 683.5 C 216 690.40356 210.40356 696 203.5 696 C 196.59644 696 191 690.40356 191 683.5 Z" opacity="0.2"/></g><g transform="translate(-86,-46) scale(1,1)"><path fill="none" stroke="#000000" d="M 184 676.5 C 184 669.59644 189.59644 664 196.5 664 C 203.40356 664 209 669.59644 209 676.5 C 209 683.40356 203.40356 689 196.5 689 C 189.59644 689 184 683.40356 184 676.5 Z" stroke-miterlimit="10"/></g><g transform="translate(-86,-46) scale(1,1)"><path fill="#000000" stroke="none" d="M 189 676.5 C 189 672.357864 192.357864 669 196.5 669 C 200.642136 669 204 672.357864 204 676.5 C 204 680.642136 200.642136 684 196.5 684 C 192.357864 684 189 680.642136 189 676.5 Z"/></g><g transform="translate(-86,-46) scale(1,1)"><path fill="none" stroke="#000000" d="M 193 148 L 195 207" stroke-miterlimit="10"/></g><g transform="translate(-86,-46) scale(1,1)"><path fill="none" stroke="#000000" d="M 190.44859903663905 196.98577265732814 L 195 207 L 198.8628015772555 196.70054545256147" stroke-miterlimit="10"/></g><g transform="translate(-86,-46) scale(1,1)"><path fill="none" stroke="#000000" d="M 196 249 L 196 287" stroke-miterlimit="10"/></g><g transform="translate(-86,-46) scale(1,1)"><path fill="none" stroke="#000000" d="M 191.790482243984 276.83732514237585 L 196 287 L 200.209517756016 276.83732514237585" stroke-miterlimit="10"/></g><g transform="translate(-86,-46) scale(1,1)"><path fill="none" stroke="#000000" d="M 196 329 L 196 367" stroke-miterlimit="10"/></g><g transform="translate(-86,-46) scale(1,1)"><path fill="none" stroke="#000000" d="M 191.790482243984 356.83732514237585 L 196 367 L 200.209517756016 356.83732514237585" stroke-miterlimit="10"/></g><g transform="translate(-86,-46) scale(1,1)"><path fill="none" stroke="#000000" d="M 196 409 L 196 439" stroke-miterlimit="10"/></g><g transform="translate(-86,-46) scale(1,1)"><path fill="none" stroke="#000000" d="M 191.790482243984 428.83732514237585 L 196 439 L 200.209517756016 428.83732514237585" stroke-miterlimit="10"/></g><g transform="translate(-86,-46) scale(1,1)"><path fill="none" stroke="#000000" d="M 197 481 L 197 519" stroke-miterlimit="10"/></g><g transform="translate(-86,-46) scale(1,1)"><path fill="none" stroke="#000000" d="M 192.790482243984 508.83732514237585 L 197 519 L 201.209517756016 508.83732514237585" stroke-miterlimit="10"/></g><g transform="translate(-86,-46) scale(1,1)"><path fill="none" stroke="#000000" d="M 197 561 L 197 591" stroke-miterlimit="10"/></g><g transform="translate(-86,-46) scale(1,1)"><path fill="none" stroke="#000000" d="M 192.790482243984 580.8373251423759 L 197 591 L 201.209517756016 580.8373251423759" stroke-miterlimit="10"/></g><g transform="translate(-86,-46) scale(1,1)"><path fill="none" stroke="#000000" d="M 196 633 L 196 663" stroke-miterlimit="10"/></g><g transform="translate(-86,-46) scale(1,1)"><path fill="none" stroke="#000000" d="M 191.790482243984 652.8373251423759 L 196 663 L 200.209517756016 652.8373251423759" stroke-miterlimit="10"/></g><g transform="translate(-86,-46) scale(1,1)"><path fill="#C0C0C0" stroke="none" d="M 791 144.5 C 791 139.2532944 795.2532944 135 800.5 135 C 805.7467056 135 810 139.2532944 810 144.5 C 810 149.7467056 805.7467056 154 800.5 154 C 795.2532944 154 791 149.7467056 791 144.5 Z" opacity="0.2"/></g><g transform="translate(-86,-46) scale(1,1)"><path fill="#000000" stroke="none" d="M 784 137.5 C 784 132.2532944 788.2532944 128 793.5 128 C 798.7467056 128 803 132.2532944 803 137.5 C 803 142.7467056 798.7467056 147 793.5 147 C 788.2532944 147 784 142.7467056 784 137.5 Z"/></g><g transform="translate(-86,-46) scale(1,1)"><path fill="#C0C0C0" stroke="none" d="M 745 207 L 861 207 Q 871 207 871 217 L 871 237 Q 871 247 861 247 L 745 247 Q 735 247 735 237 L 735 217 Q 735 207 745 207 Z" opacity="0.2"/></g><g transform="translate(-86,-46) scale(1,1)"><path fill="#ffffff" stroke="none" d="M 738 200 L 854 200 Q 864 200 864 210 L 864 230 Q 864 240 854 240 L 738 240 Q 728 240 728 230 L 728 210 Q 728 200 738 200 Z"/></g><g transform="translate(-86,-46) scale(1,1)"><path fill="none" stroke="#000000" d="M 738 200 L 854 200 Q 864 200 864 210 L 864 230 Q 864 240 854 240 L 738 240 Q 728 240 728 230 L 728 210 Q 728 200 738 200 Z" stroke-miterlimit="10"/></g><g transform="translate(-86,-46) scale(1,1)"><g><path fill="none" stroke="none"/><text fill="#000000" stroke="none" font-family="Arial" font-size="13px" font-style="normal" font-weight="bold" text-decoration="none" x="750.8427734375" y="219.5">Compile project</text></g></g><g transform="translate(-86,-46) scale(1,1)"><path fill="#C0C0C0" stroke="none" d="M 745 279 L 861 279 Q 871 279 871 289 L 871 309 Q 871 319 861 319 L 745 319 Q 735 319 735 309 L 735 289 Q 735 279 745 279 Z" opacity="0.2"/></g><g transform="translate(-86,-46) scale(1,1)"><path fill="#ffffff" stroke="none" d="M 738 272 L 854 272 Q 864 272 864 282 L 864 302 Q 864 312 854 312 L 738 312 Q 728 312 728 302 L 728 282 Q 728 272 738 272 Z"/></g><g transform="translate(-86,-46) scale(1,1)"><path fill="none" stroke="#000000" d="M 738 272 L 854 272 Q 864 272 864 282 L 864 302 Q 864 312 854 312 L 738 312 Q 728 312 728 302 L 728 282 Q 728 272 738 272 Z" stroke-miterlimit="10"/></g><g transform="translate(-86,-46) scale(1,1)"><g><path fill="none" stroke="none"/><text fill="#000000" stroke="none" font-family="Arial" font-size="13px" font-style="normal" font-weight="bold" text-decoration="none" x="746.52001953125" y="291.5">Utility.startServer</text></g></g><g transform="translate(-86,-46) scale(1,1)"><path fill="none" stroke="#000000" d="M 793 148 L 795 199" stroke-miterlimit="10"/></g><g transform="translate(-86,-46) scale(1,1)"><path fill="none" stroke="#000000" d="M 790.3954851875804 189.01008291614946 L 795 199 L 798.8080544655463 188.68017823858216" stroke-miterlimit="10"/></g><g transform="translate(-86,-46) scale(1,1)"><path fill="none" stroke="#000000" d="M 796 241 L 796 271" stroke-miterlimit="10"/></g><g transform="translate(-86,-46) scale(1,1)"><path fill="none" stroke="#000000" d="M 791.790482243984 260.83732514237585 L 796 271 L 800.209517756016 260.83732514237585" stroke-miterlimit="10"/></g><g transform="translate(-86,-46) scale(1,1)"><path fill="#C0C0C0" stroke="none" d="M 791 363.5 C 791 356.59644 796.59644 351 803.5 351 C 810.40356 351 816 356.59644 816 363.5 C 816 370.40356 810.40356 376 803.5 376 C 796.59644 376 791 370.40356 791 363.5 Z" opacity="0.2"/></g><g transform="translate(-86,-46) scale(1,1)"><path fill="none" stroke="#000000" d="M 784 356.5 C 784 349.59644 789.59644 344 796.5 344 C 803.40356 344 809 349.59644 809 356.5 C 809 363.40356 803.40356 369 796.5 369 C 789.59644 369 784 363.40356 784 356.5 Z" stroke-miterlimit="10"/></g><g transform="translate(-86,-46) scale(1,1)"><path fill="#000000" stroke="none" d="M 789 356.5 C 789 352.357864 792.357864 349 796.5 349 C 800.642136 349 804 352.357864 804 356.5 C 804 360.642136 800.642136 364 796.5 364 C 792.357864 364 789 360.642136 789 356.5 Z"/></g><g transform="translate(-86,-46) scale(1,1)"><path fill="none" stroke="#000000" d="M 796 313 L 796 343" stroke-miterlimit="10"/></g><g transform="translate(-86,-46) scale(1,1)"><path fill="none" stroke="#000000" d="M 791.790482243984 332.83732514237585 L 796 343 L 800.209517756016 332.83732514237585" stroke-miterlimit="10"/></g><g transform="translate(-86,-46) scale(1,1)"><g><path fill="none" stroke="none"/><text fill="#000000" stroke="none" font-family="Arial" font-size="24px" font-style="normal" font-weight="normal" text-decoration="none" x="101" y="93">Before:</text></g></g><g transform="translate(-86,-46) scale(1,1)"><g><path fill="none" stroke="none"/><text fill="#000000" stroke="none" font-family="Arial" font-size="28px" font-style="normal" font-weight="normal" text-decoration="none" x="709" y="89">After:</text></g></g></g></svg>