<svg version="1.1" xmlns="http://www.w3.org/2000/svg" xmlns:xlink="http://www.w3.org/1999/xlink" width="964" height="460"><defs/><g><g transform="translate(-30,-70) scale(1,1)"><rect fill="#C0C0C0" stroke="none" x="239" y="87" width="752" height="440" opacity="0.2"/></g><g transform="translate(-30,-70) scale(1,1)"><rect fill="#ffffff" stroke="none" x="232" y="80" width="752" height="440"/></g><g transform="translate(-30,-70) scale(1,1)"><path fill="none" stroke="#000000" d="M 232 80 L 984 80 L 984 520 L 232 520 L 232 80 Z Z" stroke-miterlimit="10"/></g><g transform="translate(-30,-70) scale(1,1)"><g><path fill="none" stroke="none"/><text fill="#000000" stroke="none" font-family="Arial" font-size="13px" font-style="normal" font-weight="bold" text-decoration="none" x="544.774169921875" y="99.5">Server automatization</text></g></g><g transform="translate(-30,-70) scale(1,1)"><rect fill="#C0C0C0" stroke="none" x="599" y="175" width="359" height="208" opacity="0.2"/></g><g transform="translate(-30,-70) scale(1,1)"><rect fill="#ffffff" stroke="none" x="592" y="168" width="359" height="208"/></g><g transform="translate(-30,-70) scale(1,1)"><path fill="none" stroke="#000000" d="M 592 168 L 951 168 L 951 376 L 592 376 L 592 168 Z Z" stroke-miterlimit="10"/></g><g transform="translate(-30,-70) scale(1,1)"><g><path fill="none" stroke="none"/><text fill="#000000" stroke="none" font-family="Arial" font-size="13px" font-style="normal" font-weight="bold" text-decoration="none" x="708.27099609375" y="187.5">Synchronize manager</text></g></g><g transform="translate(-30,-70) scale(1,1)"><path fill="#ffffff" stroke="none" d="M 74.47478000710227 249.68 C 74.47478000710227 244.886167936 78.36062233204773 241 83.154052734375 241 C 87.94748313670227 241 91.83332546164773 244.886167936 91.83332546164773 249.68 C 91.83332546164773 254.47383206400002 87.94748313670227 258.36 83.154052734375 258.36 C 78.36062233204773 258.36 74.47478000710227 254.47383206400002 74.47478000710227 249.68 Z"/></g><g transform="translate(-30,-70) scale(1,1)"><path fill="none" stroke="#000000" d="M 74.47478000710227 249.68 C 74.47478000710227 244.886167936 78.36062233204773 241 83.154052734375 241 C 87.94748313670227 241 91.83332546164773 244.886167936 91.83332546164773 249.68 C 91.83332546164773 254.47383206400002 87.94748313670227 258.36 83.154052734375 258.36 C 78.36062233204773 258.36 74.47478000710227 254.47383206400002 74.47478000710227 249.68 Z" stroke-miterlimit="10"/></g><g transform="translate(-30,-70) scale(1,1)"><path fill="none" stroke="#000000" d="M 83.154052734375 258.36 L 83.154052734375 275.64" stroke-miterlimit="10"/></g><g transform="translate(-30,-70) scale(1,1)"><path fill="none" stroke="#000000" d="M 73.96423455255682 264.84 L 92.34387091619318 264.84" stroke-miterlimit="10"/></g><g transform="translate(-30,-70) scale(1,1)"><path fill="none" stroke="#000000" d="M 83.154052734375 275.64 L 70.39041637073863 293" stroke-miterlimit="10"/></g><g transform="translate(-30,-70) scale(1,1)"><path fill="none" stroke="#000000" d="M 83.154052734375 275.64 L 95.91768909801137 293" stroke-miterlimit="10"/></g><g transform="translate(-30,-70) scale(1,1)"><g><path fill="none" stroke="none"/><text fill="#000000" stroke="none" font-family="Arial" font-size="13px" font-style="normal" font-weight="bold" text-decoration="none" x="47.035888671875" y="313.5">Programmer</text></g></g><g transform="translate(-30,-70) scale(1,1)"><path fill="#C0C0C0" stroke="none" d="M 295 192 C 295 182.6111584 321.1913392 175 353.5 175 C 385.8086608 175 412 182.6111584 412 192 C 412 201.3888416 385.8086608 209 353.5 209 C 321.1913392 209 295 201.3888416 295 192 Z" opacity="0.2"/></g><g transform="translate(-30,-70) scale(1,1)"><path fill="#ffffff" stroke="none" d="M 288 185 C 288 175.6111584 314.1913392 168 346.5 168 C 378.8086608 168 405 175.6111584 405 185 C 405 194.3888416 378.8086608 202 346.5 202 C 314.1913392 202 288 194.3888416 288 185 Z"/></g><g transform="translate(-30,-70) scale(1,1)"><path fill="none" stroke="#000000" d="M 288 185 C 288 175.6111584 314.1913392 168 346.5 168 C 378.8086608 168 405 175.6111584 405 185 C 405 194.3888416 378.8086608 202 346.5 202 C 314.1913392 202 288 194.3888416 288 185 Z" stroke-miterlimit="10"/></g><g transform="translate(-30,-70) scale(1,1)"><g><path fill="none" stroke="none"/><text fill="#000000" stroke="none" font-family="Arial" font-size="13px" font-style="normal" font-weight="bold" text-decoration="none" x="311.82275390625" y="192">Start Server</text></g></g><g transform="translate(-30,-70) scale(1,1)"><path fill="#C0C0C0" stroke="none" d="M 295 360 C 295 350.6111584 320.9674816 343 353 343 C 385.0325184 343 411 350.6111584 411 360 C 411 369.3888416 385.0325184 377 353 377 C 320.9674816 377 295 369.3888416 295 360 Z" opacity="0.2"/></g><g transform="translate(-30,-70) scale(1,1)"><path fill="#ffffff" stroke="none" d="M 288 353 C 288 343.6111584 313.9674816 336 346 336 C 378.0325184 336 404 343.6111584 404 353 C 404 362.3888416 378.0325184 370 346 370 C 313.9674816 370 288 362.3888416 288 353 Z"/></g><g transform="translate(-30,-70) scale(1,1)"><path fill="none" stroke="#000000" d="M 288 353 C 288 343.6111584 313.9674816 336 346 336 C 378.0325184 336 404 343.6111584 404 353 C 404 362.3888416 378.0325184 370 346 370 C 313.9674816 370 288 362.3888416 288 353 Z" stroke-miterlimit="10"/></g><g transform="translate(-30,-70) scale(1,1)"><g><path fill="none" stroke="none"/><text fill="#000000" stroke="none" font-family="Arial" font-size="13px" font-style="normal" font-weight="bold" text-decoration="none" x="311.67822265625" y="360">Stop Server</text></g></g><g transform="translate(-30,-70) scale(1,1)"><path fill="#C0C0C0" stroke="none" d="M 295 272 C 295 262.6111584 325.8923488 255 364 255 C 402.1076512 255 433 262.6111584 433 272 C 433 281.3888416 402.1076512 289 364 289 C 325.8923488 289 295 281.3888416 295 272 Z" opacity="0.2"/></g><g transform="translate(-30,-70) scale(1,1)"><path fill="#ffffff" stroke="none" d="M 288 265 C 288 255.6111584 318.8923488 248 357 248 C 395.1076512 248 426 255.6111584 426 265 C 426 274.3888416 395.1076512 282 357 282 C 318.8923488 282 288 274.3888416 288 265 Z"/></g><g transform="translate(-30,-70) scale(1,1)"><path fill="none" stroke="#000000" d="M 288 265 C 288 255.6111584 318.8923488 248 357 248 C 395.1076512 248 426 255.6111584 426 265 C 426 274.3888416 395.1076512 282 357 282 C 318.8923488 282 288 274.3888416 288 265 Z" stroke-miterlimit="10"/></g><g transform="translate(-30,-70) scale(1,1)"><g><path fill="none" stroke="none"/><text fill="#000000" stroke="none" font-family="Arial" font-size="13px" font-style="normal" font-weight="bold" text-decoration="none" x="315.09912109375" y="272">Restart Server</text></g></g><g transform="translate(-30,-70) scale(1,1)"><path fill="#C0C0C0" stroke="none" d="M 295 448 C 295 438.6111584 342.9055264 431 402 431 C 461.0944736 431 509 438.6111584 509 448 C 509 457.3888416 461.0944736 465 402 465 C 342.9055264 465 295 457.3888416 295 448 Z" opacity="0.2"/></g><g transform="translate(-30,-70) scale(1,1)"><path fill="#ffffff" stroke="none" d="M 288 441 C 288 431.6111584 335.9055264 424 395 424 C 454.0944736 424 502 431.6111584 502 441 C 502 450.3888416 454.0944736 458 395 458 C 335.9055264 458 288 450.3888416 288 441 Z"/></g><g transform="translate(-30,-70) scale(1,1)"><path fill="none" stroke="#000000" d="M 288 441 C 288 431.6111584 335.9055264 424 395 424 C 454.0944736 424 502 431.6111584 502 441 C 502 450.3888416 454.0944736 458 395 458 C 335.9055264 458 288 450.3888416 288 441 Z" stroke-miterlimit="10"/></g><g transform="translate(-30,-70) scale(1,1)"><g><path fill="none" stroke="none"/><text fill="#000000" stroke="none" font-family="Arial" font-size="13px" font-style="normal" font-weight="bold" text-decoration="none" x="328.88916015625" y="448">Create or config server</text></g></g><g transform="translate(-30,-70) scale(1,1)"><path fill="#C0C0C0" stroke="none" d="M 615 248 C 615 238.6111584 674.0984064 231 747 231 C 819.9015936 231 879 238.6111584 879 248 C 879 257.3888416 819.9015936 265 747 265 C 674.0984064 265 615 257.3888416 615 248 Z" opacity="0.2"/></g><g transform="translate(-30,-70) scale(1,1)"><path fill="#ffffff" stroke="none" d="M 608 241 C 608 231.6111584 667.0984064 224 740 224 C 812.9015936 224 872 231.6111584 872 241 C 872 250.3888416 812.9015936 258 740 258 C 667.0984064 258 608 250.3888416 608 241 Z"/></g><g transform="translate(-30,-70) scale(1,1)"><path fill="none" stroke="#000000" d="M 608 241 C 608 231.6111584 667.0984064 224 740 224 C 812.9015936 224 872 231.6111584 872 241 C 872 250.3888416 812.9015936 258 740 258 C 667.0984064 258 608 250.3888416 608 241 Z" stroke-miterlimit="10"/></g><g transform="translate(-30,-70) scale(1,1)"><g><path fill="none" stroke="none"/><text fill="#000000" stroke="none" font-family="Arial" font-size="13px" font-style="normal" font-weight="bold" text-decoration="none" x="657.9755859375" y="248">Add source and target folder</text></g></g><g transform="translate(-30,-70) scale(1,1)"><path fill="#C0C0C0" stroke="none" d="M 615 328 C 615 318.6111584 682.15728 311 765 311 C 847.84272 311 915 318.6111584 915 328 C 915 337.3888416 847.84272 345 765 345 C 682.15728 345 615 337.3888416 615 328 Z" opacity="0.2"/></g><g transform="translate(-30,-70) scale(1,1)"><path fill="#ffffff" stroke="none" d="M 608 321 C 608 311.6111584 675.15728 304 758 304 C 840.84272 304 908 311.6111584 908 321 C 908 330.3888416 840.84272 338 758 338 C 675.15728 338 608 330.3888416 608 321 Z"/></g><g transform="translate(-30,-70) scale(1,1)"><path fill="none" stroke="#000000" d="M 608 321 C 608 311.6111584 675.15728 304 758 304 C 840.84272 304 908 311.6111584 908 321 C 908 330.3888416 840.84272 338 758 338 C 675.15728 338 608 330.3888416 608 321 Z" stroke-miterlimit="10"/></g><g transform="translate(-30,-70) scale(1,1)"><g><path fill="none" stroke="none"/><text fill="#000000" stroke="none" font-family="Arial" font-size="13px" font-style="normal" font-weight="bold" text-decoration="none" x="663.33740234375" y="328">Remove source and target folder</text></g></g><g transform="translate(-30,-70) scale(1,1)"><path fill="none" stroke="#000000" d="M 613 223 L 406 194" stroke-miterlimit="10" stroke-dasharray="3"/></g><g transform="translate(-30,-70) scale(1,1)"><path fill="none" stroke="#000000" d="M 416.6484232056997 191.24118082645563 L 406 194 L 415.4803520033751 199.5787925120138" stroke-miterlimit="10"/></g><g transform="translate(-30,-70) scale(1,1)"><g><path fill="none" stroke="none"/><text fill="#000000" stroke="none" font-family="Arial" font-size="13px" font-style="normal" font-weight="normal" text-decoration="none" x="477" y="244">«include»</text></g></g><g transform="translate(-30,-70) scale(1,1)"><path fill="none" stroke="#000000" d="M 607 333 L 405 348" stroke-miterlimit="10" stroke-dasharray="3"/></g><g transform="translate(-30,-70) scale(1,1)"><path fill="none" stroke="#000000" d="M 414.82304120145113 343.0494584584519 L 405 348 L 415.4465005399953 351.4453775508466" stroke-miterlimit="10"/></g><g transform="translate(-30,-70) scale(1,1)"><g><path fill="none" stroke="none"/><text fill="#000000" stroke="none" font-family="Arial" font-size="13px" font-style="normal" font-weight="normal" text-decoration="none" x="481" y="376">«include»</text></g></g><g transform="translate(-30,-70) scale(1,1)"><path fill="none" stroke="#000000" d="M 127 263 L 296 203" stroke-miterlimit="10"/></g><g transform="translate(-30,-70) scale(1,1)"><path fill="none" stroke="#000000" d="M 287.8313661736787 210.3670497087694 L 296 203 L 285.0146128219692 202.4331944347876" stroke-miterlimit="10"/></g><g transform="translate(-30,-70) scale(1,1)"><path fill="none" stroke="#000000" d="M 127 277 L 287 269" stroke-miterlimit="10"/></g><g transform="translate(-30,-70) scale(1,1)"><path fill="none" stroke="#000000" d="M 277.06021800191127 273.71176546853417 L 287 269 L 276.63979143147435 265.3032340597966" stroke-miterlimit="10"/></g><g transform="translate(-30,-70) scale(1,1)"><path fill="none" stroke="#000000" d="M 127 291 L 287 336" stroke-miterlimit="10"/></g><g transform="translate(-30,-70) scale(1,1)"><path fill="none" stroke="#000000" d="M 276.0771831804294 337.3007969580629 L 287 336 L 278.35659980723 329.1962045072163" stroke-miterlimit="10"/></g><g transform="translate(-30,-70) scale(1,1)"><path fill="none" stroke="#000000" d="M 127 302 L 360 423" stroke-miterlimit="10"/></g><g transform="translate(-30,-70) scale(1,1)"><path fill="none" stroke="#000000" d="M 349.04091746667854 422.0521023115077 L 360 423 L 352.9210233085093 414.5804935417014" stroke-miterlimit="10"/></g></g></svg>